<?xml version="1.0" encoding="utf-8"?><!DOCTYPE svg PUBLIC "-//W3C//DTD SVG 1.1//EN" "http://www.w3.org/Graphics/SVG/1.1/DTD/svg11.dtd"><svg version="1.1" id="Ebene_1" xmlns="http://www.w3.org/2000/svg" xmlns:xlink="http://www.w3.org/1999/xlink" x="0px" y="0px" width="1140.207px" height="213.456px" viewBox="0 0 1140.207 213.456" enable-background="new 0 0 1140.207 213.456" xml:space="preserve"><g> <path fill="#FFFFFF" d="M80.425,79.01h41.67 M54.171,62.332c0-1.384-1.121-2.503-2.499-2.503H17.083 c-1.383,0-2.501,1.119-2.501,2.503v12.452h39.588V62.332z M120.842,62.332c0-1.384-1.118-2.503-2.501-2.503H81.675 c-1.384,0-2.501,1.119-2.501,2.503v12.452h41.669V62.332z M134.596,157.817c0,0.689-0.558,1.255-1.252,1.255H1.25 c-0.692,0-1.25-0.565-1.25-1.255V80.259c0-0.689,0.558-1.25,1.25-1.25h132.095c0.694,0,1.252,0.561,1.252,1.25V157.817z"/></g><g> <path fill="#FFFFFF" d="M259.981,55.834c11.964,0,21.33,4.668,28.099,14.004c6.767,9.335,10.151,22.131,10.151,38.386 c0,16.738-3.49,29.699-10.469,38.885c-6.979,9.186-16.482,13.777-28.506,13.777c-11.905,0-21.241-4.32-28.007-12.962h-1.903 l-4.623,11.148h-21.119V18.037h27.645v32.812c0,4.169-0.363,10.847-1.088,20.031h1.088 C237.713,60.85,247.292,55.834,259.981,55.834z M251.099,77.95c-6.829,0-11.814,2.101-14.956,6.3 c-3.143,4.201-4.774,11.134-4.895,20.802v2.991c0,10.876,1.616,18.671,4.849,23.384c3.232,4.714,8.353,7.07,15.363,7.07 c5.679,0,10.197-2.613,13.551-7.84s5.03-12.826,5.03-22.796s-1.692-17.448-5.076-22.433 C261.582,80.442,256.959,77.95,251.099,77.95z"/> <path fill="#FFFFFF" d="M368.35,55.834c3.746,0,6.857,0.272,9.335,0.816l-2.084,25.923c-2.236-0.604-4.956-0.907-8.158-0.907 c-8.823,0-15.696,2.266-20.62,6.798c-4.926,4.532-7.387,10.876-7.387,19.034v51.574h-27.645V57.737h20.938l4.079,17.04h1.359 c3.141-5.679,7.387-10.256,12.735-13.731C356.25,57.572,362.064,55.834,368.35,55.834z"/> <path fill="#FFFFFF" d="M385.626,31.542c0-9.003,5.015-13.505,15.046-13.505c10.03,0,15.046,4.502,15.046,13.505 c0,4.292-1.255,7.629-3.762,10.016c-2.508,2.388-6.27,3.581-11.285,3.581C390.641,45.139,385.626,40.606,385.626,31.542z M414.449,159.072h-27.645V57.737h27.645V159.072z"/> <path fill="#FFFFFF" d="M475.323,160.886c-31.543,0-47.314-17.313-47.314-51.937c0-17.222,4.29-30.378,12.871-39.474 c8.58-9.094,20.877-13.641,36.891-13.641c11.722,0,22.236,2.297,31.542,6.889l-8.158,21.391c-4.351-1.752-8.4-3.187-12.146-4.305 c-3.748-1.118-7.494-1.677-11.239-1.677c-14.382,0-21.572,10.212-21.572,30.636c0,19.82,7.19,29.729,21.572,29.729 c5.316,0,10.242-0.709,14.774-2.13c4.532-1.419,9.064-3.64,13.596-6.662v23.657c-4.473,2.841-8.989,4.804-13.551,5.891 C488.026,160.341,482.271,160.886,475.323,160.886z"/> <path fill="#FFFFFF" d="M546.891,103.963l12.055-15.409l28.371-30.817h31.18l-40.244,43.96l42.691,57.375h-31.905l-29.186-41.06 l-11.874,9.518v31.542h-27.645V18.037h27.645v62.904l-1.45,23.022H546.891z"/> <path fill="#FFFFFF" stroke="#FFFFFF" stroke-width="3" stroke-miterlimit="10" d="M751.248,159.072V94.446 c0-9.608-1.874-16.617-5.62-21.028c-3.747-4.41-9.487-6.617-17.222-6.617c-10.092,0-17.554,2.78-22.388,8.339 c-4.835,5.56-7.251,14.292-7.251,26.195v57.737h-9.154V91.727c0-16.617-7.614-24.926-22.842-24.926 c-10.332,0-17.855,3.007-22.568,9.019c-4.714,6.014-7.07,15.635-7.07,28.869v54.384h-8.974V60.547h7.433l1.903,13.505h0.544 c2.72-4.895,6.586-8.686,11.602-11.375c5.016-2.688,10.544-4.034,16.588-4.034c15.528,0,25.499,5.832,29.91,17.494h0.363 c3.202-5.62,7.507-9.939,12.916-12.961c5.407-3.021,11.557-4.532,18.445-4.532c10.755,0,18.821,2.871,24.2,8.611 c5.378,5.742,8.067,14.865,8.067,27.373v64.445H751.248z"/> <path fill="#FFFFFF" stroke="#FFFFFF" stroke-width="3" stroke-miterlimit="10" d="M822.544,160.886 c-14.321,0-25.485-4.41-33.491-13.234c-8.008-8.821-12.01-21.178-12.01-37.071c0-15.71,3.866-28.293,11.602-37.751 c7.734-9.456,18.158-14.185,31.271-14.185c11.603,0,20.757,4.049,27.464,12.146c6.708,8.098,10.062,19.095,10.062,32.993v7.251 H786.47c0.12,13.536,3.277,23.87,9.472,30.999c6.193,7.131,15.061,10.695,26.603,10.695c5.62,0,10.56-0.393,14.819-1.178 c4.261-0.785,9.653-2.478,16.18-5.076v8.157c-5.561,2.417-10.695,4.064-15.409,4.94 C833.421,160.446,828.223,160.886,822.544,160.886z M819.916,66.62c-9.487,0-17.101,3.127-22.841,9.381 c-5.741,6.254-9.095,15.273-10.061,27.056h60.909c0-11.42-2.479-20.349-7.433-26.784C835.536,69.838,828.676,66.62,819.916,66.62z" /> <path fill="#FFFFFF" stroke="#FFFFFF" stroke-width="3" stroke-miterlimit="10" d="M914.144,58.644 c4.17,0,8.641,0.424,13.415,1.269l-1.723,8.611c-4.109-1.027-8.37-1.541-12.78-1.541c-8.399,0-15.288,3.566-20.666,10.696 c-5.378,7.13-8.066,16.134-8.066,27.01v54.384h-8.974V60.547h7.614l0.906,17.765h0.635c4.047-7.251,8.368-12.341,12.961-15.273 C902.058,60.109,907.618,58.644,914.144,58.644z"/> <path fill="#FFFFFF" stroke="#FFFFFF" stroke-width="3" stroke-miterlimit="10" d="M1015.17,60.547v6.254l-20.394,1.269 c5.438,6.768,8.157,14.201,8.157,22.297c0,9.487-3.158,17.176-9.472,23.067c-6.314,5.893-14.79,8.838-25.424,8.838 c-4.473,0-7.614-0.182-9.427-0.543c-3.566,1.873-6.285,4.078-8.158,6.616s-2.81,5.228-2.81,8.067c0,3.143,1.192,5.438,3.58,6.888 c2.387,1.45,6.391,2.176,12.01,2.176h17.222c10.695,0,18.883,2.161,24.563,6.48c5.679,4.321,8.521,10.71,8.521,19.171 c0,10.392-4.215,18.413-12.645,24.064c-8.43,5.649-20.439,8.475-36.029,8.475c-12.388,0-21.98-2.388-28.778-7.16 c-6.798-4.774-10.196-11.421-10.196-19.941c0-6.768,2.099-12.388,6.299-16.859c4.199-4.471,9.895-7.522,17.086-9.154 c-2.962-1.269-5.334-3.066-7.115-5.393c-1.783-2.326-2.674-5-2.674-8.021c0-6.586,4.199-12.387,12.599-17.402 c-5.741-2.357-10.212-6.059-13.414-11.104c-3.204-5.044-4.805-10.832-4.805-17.357c0-9.849,3.127-17.75,9.382-23.702 c6.254-5.951,14.697-8.928,25.333-8.928c6.466,0,11.48,0.635,15.047,1.904H1015.17z M935.408,175.75 c0,13.535,10.062,20.303,30.184,20.303c25.861,0,38.793-8.248,38.793-24.744c0-5.923-2.025-10.212-6.072-12.87 c-4.05-2.659-10.605-3.988-19.669-3.988h-16.134C944.441,154.45,935.408,161.55,935.408,175.75z M942.931,91.274 c0,7.614,2.312,13.521,6.934,17.72c4.623,4.2,10.801,6.3,18.536,6.3c8.217,0,14.517-2.086,18.898-6.255 c4.38-4.169,6.571-10.211,6.571-18.127c0-8.398-2.252-14.698-6.753-18.898c-4.502-4.199-10.802-6.3-18.898-6.3 c-7.855,0-14.035,2.252-18.535,6.753C945.181,76.968,942.931,83.238,942.931,91.274z"/> <path fill="#FFFFFF" stroke="#FFFFFF" stroke-width="3" stroke-miterlimit="10" d="M1065.893,160.886 c-14.321,0-25.485-4.41-33.491-13.234c-8.008-8.821-12.01-21.178-12.01-37.071c0-15.71,3.866-28.293,11.602-37.751 c7.734-9.456,18.158-14.185,31.271-14.185c11.603,0,20.757,4.049,27.464,12.146c6.708,8.098,10.062,19.095,10.062,32.993v7.251 h-70.971c0.12,13.536,3.277,23.87,9.472,30.999c6.193,7.131,15.061,10.695,26.603,10.695c5.62,0,10.56-0.393,14.819-1.178 c4.261-0.785,9.653-2.478,16.18-5.076v8.157c-5.561,2.417-10.695,4.064-15.409,4.94 C1076.77,160.446,1071.572,160.886,1065.893,160.886z M1063.264,66.62c-9.487,0-17.101,3.127-22.841,9.381 c-5.741,6.254-9.095,15.273-10.061,27.056h60.909c0-11.42-2.479-20.349-7.433-26.784 C1078.884,69.838,1072.026,66.62,1063.264,66.62z"/></g><g> <path fill="#FFFFFF" stroke="#FFFFFF" stroke-miterlimit="10" d="M1100.803,38.66c0-3.493,0.873-6.769,2.62-9.825 c1.746-3.057,4.148-5.467,7.205-7.231c3.057-1.764,6.35-2.646,9.878-2.646c3.493,0,6.769,0.874,9.825,2.62 c3.057,1.747,5.467,4.149,7.231,7.206c1.764,3.057,2.646,6.35,2.646,9.877c0,3.441-0.848,6.673-2.542,9.694 c-1.694,3.022-4.07,5.441-7.126,7.258c-3.058,1.817-6.402,2.725-10.035,2.725c-3.616,0-6.952-0.904-10.009-2.712 c-3.057-1.808-5.437-4.222-7.14-7.244S1100.803,42.119,1100.803,38.66z M1103.24,38.66c0,3.109,0.773,5.987,2.319,8.633 c1.545,2.646,3.646,4.747,6.301,6.301s5.537,2.332,8.646,2.332c3.108,0,5.986-0.773,8.633-2.319s4.746-3.646,6.302-6.301 c1.554-2.655,2.331-5.537,2.331-8.646c0-3.039-0.746-5.877-2.239-8.515c-1.494-2.637-3.581-4.76-6.263-6.367 s-5.603-2.411-8.764-2.411c-3.074,0-5.943,0.773-8.607,2.319s-4.772,3.664-6.327,6.354 C1104.017,32.73,1103.24,35.604,1103.24,38.66z M1127.528,33.761c0,1.38-0.336,2.598-1.009,3.655 c-0.673,1.057-1.638,1.882-2.895,2.476l6.209,10.297h-3.17l-5.502-9.432h-4.402v9.432h-2.646V27.132h5.528 c2.498,0,4.437,0.542,5.817,1.625C1126.837,29.839,1127.528,31.507,1127.528,33.761z M1116.759,38.66h2.935 c1.589,0,2.838-0.406,3.747-1.218c0.908-0.812,1.362-1.995,1.362-3.55c0-3.004-1.721-4.506-5.162-4.506h-2.882V38.66z"/></g></svg>